<svg width="582" height="259" viewBox="0 0 582 259" fill="none" xmlns="http://www.w3.org/2000/svg">
<g clip-path="url(#clip0_95_1854)">
<path d="M253.365 110.985C245.973 121.734 239.622 133.169 234.399 145.133C234.399 145.355 234.178 145.473 233.722 145.473C233.155 145.813 232.419 145.554 231.514 144.734C230.608 143.914 229.924 143.219 229.468 142.768C228.872 142.16 228.335 141.497 227.863 140.788C227.348 140.049 225.221 138.076 224.654 137.396L224.227 136.967C224.147 136.89 224.083 136.797 224.04 136.694C223.997 136.591 223.976 136.48 223.977 136.369C223.749 135.682 223.718 134.944 223.889 134.24C224.034 133.57 224.234 132.913 224.485 132.275C224.558 131.907 224.703 131.558 224.912 131.248C225.074 131.033 225.215 130.803 225.331 130.56C224.075 131.698 222.8 132.809 221.504 133.893C220.194 134.972 218.862 136.029 217.508 137.049C216.154 138.068 214.954 138.874 213.592 139.783C212.231 140.692 210.877 141.549 209.515 142.34C207.349 143.533 205.071 144.508 202.714 145.251C200.405 146.041 197.91 146.097 195.568 145.414C195.051 145.04 194.477 144.753 193.868 144.564C192.64 143.902 191.634 142.892 190.975 141.66C189.933 140.097 189.398 138.249 189.444 136.369C189.467 134.233 189.764 132.11 190.328 130.051C190.881 127.924 191.592 125.841 192.455 123.821C193.257 121.944 193.978 120.355 194.626 119.033C193.2 119.849 191.882 120.842 190.703 121.988C186.39 125.949 175.122 142.207 170.736 146.315C170.571 146.507 170.369 146.664 170.143 146.777C169.917 146.89 169.67 146.957 169.418 146.973C169.065 147.122 168.684 147.189 168.302 147.17C167.919 147.151 167.546 147.045 167.21 146.862L165.238 145.872C164.538 145.456 163.877 144.976 163.265 144.438C162.676 143.928 162.021 143.382 161.293 142.79C160.41 142.051 161.146 142.133 160.137 141.312C159.129 140.492 158.165 139.761 157.238 139.095C156.982 138.9 156.775 138.647 156.634 138.357C156.525 138.101 156.397 137.854 156.251 137.618C156.203 136.733 156.215 135.847 156.288 134.965C156.354 133.985 156.507 133.013 156.744 132.061C156.887 131.695 157.003 131.32 157.09 130.937C157.208 130.487 157.326 130.043 157.436 129.592C158.16 128.339 158.804 127.04 159.365 125.705C160.13 124.025 160.964 122.301 161.867 120.533C162.765 118.774 163.648 117.658 164.391 115.692C166.997 111.076 169.754 106.509 172.664 101.992C175.571 97.4482 178.715 93.0624 182.085 88.853C182.708 87.8354 183.449 86.8953 184.293 86.0523C186.746 83.2295 189.118 80.4509 191.41 77.7168C193.701 74.9826 196 72.209 198.306 69.396C198.508 68.6996 198.88 68.0648 199.388 67.5485C199.866 67.0756 200.241 66.684 200.514 66.3662C200.74 66.1152 200.942 65.843 201.117 65.5533C201.266 65.3013 201.479 65.0945 201.736 64.9548C202.101 64.5747 202.593 64.344 203.118 64.3072C203.642 64.2703 204.162 64.43 204.576 64.7552C205.187 65.1543 206.048 65.6863 207.219 66.3366C209.491 67.8653 211.651 69.5571 213.681 71.3986C214.489 72.2511 215.122 73.2556 215.543 74.3544C215.72 74.8869 215.745 75.4586 215.615 76.0047C215.485 76.5508 215.205 77.0492 214.807 77.4433C211.963 80.0034 209.261 82.717 206.711 85.572C203.939 88.3653 201.24 91.2645 198.615 94.2697C195.99 97.2748 193.34 100.406 190.666 103.662C190.372 104.098 190.077 104.541 189.79 104.985L188.907 106.3C187.737 107.778 186.574 109.315 185.404 110.926C184.234 112.537 182.968 114.155 181.672 115.774C180.936 116.949 176.373 123.585 175.858 124.39C175.386 125.121 174.984 125.895 174.658 126.703C174.418 126.998 174.231 127.333 174.106 127.693C173.886 128.203 173.849 128.432 173.996 128.432H174.217C174.357 128.432 191.623 114.451 198.151 111.126C200.418 109.382 199.218 109.581 200.948 108.059C202.052 106.344 203.207 104.62 204.415 102.886C206.338 100.043 208.301 97.2551 210.302 94.5209C212.304 91.7867 214.372 89.1092 216.507 86.4883C222.711 78.5444 230.903 68.657 232.949 66.2701C233.009 65.9321 233.19 65.6275 233.457 65.4129C233.814 65.1919 234.226 65.0749 234.645 65.0749C235.065 65.0749 235.477 65.1919 235.834 65.4129C236.29 65.7602 236.938 66.2406 237.792 66.8909C238.636 67.5128 239.433 68.197 240.176 68.9378C240.846 69.585 241.366 70.3721 241.7 71.2434C241.841 71.6343 241.891 72.0523 241.848 72.4657C241.804 72.8791 241.668 73.2773 241.45 73.6303C240.993 74.0884 239.499 76.6896 236.209 80.9017C231.676 86.3504 227.311 91.9197 223.116 97.6098L222.638 98.3044C222.604 98.4122 222.546 98.5108 222.468 98.5926C222.383 98.8894 222.202 99.1493 221.953 99.3316L217.677 105.502C215.859 108.125 214.159 110.793 212.577 113.527C211.782 114.894 210.818 116.579 209.684 118.56C208.526 120.572 207.47 122.641 206.519 124.76C205.57 126.862 204.773 129.03 204.135 131.248C203.509 133.405 203.686 133.036 204.024 134.632C204.11 134.732 204.215 134.813 204.332 134.872C204.45 134.93 204.578 134.964 204.709 134.972C205.16 135.425 206.142 135.083 207.653 133.945C209.184 132.807 211.046 131.669 212.805 130.25C222.277 122.602 231.69 111.983 237.696 105.554C243.702 99.1247 249.597 92.437 255.36 85.4907C256.267 84.3527 257.119 83.2418 257.914 82.158C258.701 81.0791 265.87 72.1006 267.231 70.4527C268.593 68.8048 270.006 67.1864 271.478 65.5903C271.604 65.4561 271.719 65.3128 271.824 65.1617C271.953 64.9767 272.128 64.829 272.332 64.7331C272.666 64.4562 273.087 64.3048 273.52 64.3048C273.954 64.3048 274.374 64.4562 274.709 64.7331C275.165 65.073 275.813 65.5607 276.667 66.211C278.023 67.2423 279.321 68.3501 280.553 69.529C281.197 70.1845 281.698 70.9671 282.025 71.8272C282.168 72.1992 282.205 72.604 282.13 72.9958C282.056 73.3876 281.874 73.7507 281.605 74.0441C275.18 81.5298 260.784 100.189 253.365 110.985ZM227.951 60.7353C229.119 59.7056 230.179 58.7203 231.131 57.7794L233.876 55.0304C234.224 54.6522 234.467 54.1895 234.582 53.6879C234.697 53.1863 234.679 52.6633 234.531 52.1706C234.202 51.08 233.599 50.0927 232.78 49.3034C231.896 48.424 229.409 46.2662 228.364 45.4608C227.533 44.7728 226.663 44.1337 225.758 43.5468C225.022 42.8177 224.07 42.8177 222.903 43.5468L222.248 44.2119L221.593 44.8696C220.88 45.7285 220.11 46.5382 219.289 47.2934C218.429 48.09 217.657 48.977 216.985 49.9389V50.1532C217.676 52.2943 218.838 54.2517 220.385 55.8802C221.916 57.4986 225.464 59.9963 227.951 60.7353ZM406.039 71.3986C405.16 70.4411 404.172 69.5904 403.095 68.8639C401.999 68.1249 401.16 67.5485 400.578 67.1052C400.186 66.751 399.678 66.555 399.15 66.555C398.623 66.555 398.114 66.751 397.722 67.1052C397.461 67.2281 397.235 67.4164 397.067 67.652C396.871 67.9167 396.651 68.164 396.412 68.391C396.111 68.6866 395.676 69.0486 395.205 69.492C394.663 69.9679 394.248 70.5725 393.998 71.2508C391.511 73.8963 389.023 76.5024 386.535 79.0691C384.048 81.6358 381.484 84.2542 378.844 86.9243C377.939 87.7027 377.129 88.5857 376.43 89.555C372.779 93.5148 369.34 97.6662 366.126 101.992C364.272 104.499 362.464 107.014 360.702 109.537L358.59 111.355C355.955 113.409 353.433 115.463 351.024 117.518C348.615 119.572 346.09 121.543 343.45 123.429C342.916 123.77 342.411 124.156 341.942 124.582C341.206 125.166 340.47 125.794 339.638 126.452C338.806 127.109 338.1 127.738 337.43 128.321C336.76 128.905 336.37 129.208 336.223 129.208H336.002C335.855 129.208 335.892 128.962 336.113 128.469C336.272 128.157 336.383 127.824 336.444 127.479C336.858 125.761 337.687 124.173 338.858 122.853C339.589 121.685 340.357 120.513 341.162 119.335C341.966 118.158 342.805 116.983 343.679 115.811C345.843 112.525 348.187 109.362 350.7 106.337C351.005 105.881 351.334 105.442 351.686 105.022C352.047 104.578 352.378 104.135 352.672 103.699C357.64 97.0925 371.609 83.0743 373.074 81.8919C373.418 81.4668 373.657 80.9659 373.771 80.4302C373.884 79.8946 373.87 79.3395 373.729 78.8104C373.382 77.702 372.782 76.69 371.977 75.8546C371.097 74.8988 370.109 74.0483 369.034 73.3199C367.937 72.5809 367.098 72.0045 366.516 71.5611C365.895 71.0589 365.102 70.8226 364.308 70.9035C363.616 70.9329 362.939 71.1199 362.329 71.4503C358.512 73.2011 354.844 75.2623 351.362 77.6133C346.976 80.7761 342.663 83.897 338.424 86.976C336.672 88.3013 334.918 89.5846 333.161 90.8261C331.405 92.0675 329.651 93.4272 327.899 94.9052C329.798 92.703 331.699 90.6093 333.603 88.6239C335.507 86.6386 337.332 84.6212 339.079 82.5718L341.714 79.9263C342.594 79.0426 343.547 78.2344 344.562 77.5098C344.908 77.0845 345.149 76.5827 345.264 76.0456C345.379 75.5085 345.366 74.9517 345.224 74.421C344.875 73.3117 344.273 72.2996 343.465 71.4651C342.574 70.4808 341.568 69.6075 340.47 68.8639C339.371 68.1348 338.458 67.5485 337.732 67.1052C337.498 66.8814 337.222 66.7077 336.92 66.5946C336.617 66.4816 336.295 66.4315 335.973 66.4475C335.204 66.4543 334.448 66.6415 333.765 66.9943C333.112 67.2907 332.574 67.7944 332.234 68.4279C327.99 71.3838 323.674 74.4283 319.288 77.5616C314.901 80.6948 310.525 83.8157 306.158 86.9243C303.091 88.9786 300.059 91.1808 297.061 93.5307C294.063 95.8806 291.114 98.302 288.214 100.795C294.794 92.2818 301.958 83.9068 309.705 75.6698L310.257 75.123C310.476 74.9067 310.66 74.6573 310.802 74.384C310.959 74.1063 311.023 73.7848 310.983 73.4677C310.943 73.1506 310.802 72.855 310.581 72.6253C310.182 72.2156 309.743 71.8468 309.271 71.5242C308.535 70.9404 307.799 70.3862 306.967 69.8689C306.136 69.3516 305.392 68.8787 304.664 68.4427C304.075 67.9993 303.567 67.6003 303.126 67.2308C302.698 66.8681 302.155 66.6715 301.595 66.6766C300.948 66.6257 300.299 66.7305 299.701 66.9825C299.103 67.2344 298.574 67.6261 298.158 68.1249C297.266 68.9965 296.424 69.9166 295.633 70.8813C294.755 71.9109 293.877 72.8642 292.998 73.7411C292.12 74.6271 291.315 75.5835 290.592 76.6009C286.642 81.3008 282.692 85.9267 278.742 90.4787C274.792 95.0308 270.992 99.7183 267.342 104.541C264.275 108.946 261.24 113.379 258.238 117.843C255.242 122.321 246.749 135.312 244.254 140.012C243.959 140.891 243.628 141.808 243.267 142.768C242.904 143.564 242.865 144.471 243.157 145.295C243.297 145.591 243.444 145.887 243.591 146.175L244.033 147.062C244.614 147.801 245.24 148.599 245.895 149.478C246.531 150.334 247.227 151.144 247.978 151.902C248.419 152.493 250.024 153.727 251.194 154.858C252.364 155.988 254.874 157.777 255.61 157.481C255.663 157.416 255.729 157.363 255.804 157.325C255.879 157.287 255.961 157.264 256.044 157.259C256.191 157.259 256.265 157.112 256.265 156.823L256.486 156.38C257.139 156.04 257.731 155.593 258.238 155.057L259.997 153.298C261.601 151.68 261.984 149.877 263.161 148.126C267.187 142.487 268.173 138.519 278.529 125.705C282.569 120.703 285.889 116.173 290.076 111.325C294.036 106.736 298.702 101.497 302.942 97.462C307.181 93.4272 316.064 86.3257 319.244 85.269C318.662 86.008 313.945 91.6463 312.414 93.5529C310.883 95.4594 309.301 97.4472 307.696 99.5016C306.092 101.556 304.553 103.499 303.089 105.332C302.07 106.565 301.119 107.853 300.24 109.189C298.631 111.687 297.022 114.109 295.412 116.453C293.803 118.798 292.196 121.075 290.592 123.282C289.883 124.126 289.222 125.009 288.612 125.927C288.03 126.806 287.442 127.76 286.86 128.787C286.675 129.315 286.456 129.831 286.205 130.331C285.982 130.814 285.684 131.258 285.322 131.647C285.028 132.681 284.777 133.598 284.586 134.403C284.364 135.23 284.326 136.095 284.476 136.938C284.331 137.208 284.255 137.51 284.255 137.817C284.255 138.124 284.331 138.426 284.476 138.696C285.057 139.435 285.646 140.241 286.235 141.12C286.823 142 287.397 142.805 287.986 143.544C288.422 144.127 288.9 144.678 289.414 145.192L290.835 146.626C290.982 146.773 291.227 146.736 291.571 146.515C291.951 146.292 292.317 146.045 292.667 145.776C293.01 145.497 293.34 145.201 293.653 144.889L294.308 144.231C295.359 143.319 296.343 142.331 297.252 141.275C298.204 140.172 299.043 139.108 299.769 138.083C302.988 134.408 306.607 130.371 310.625 125.971C314.644 121.572 318.775 117.168 323.019 112.759C327.259 108.354 331.498 104.167 335.737 100.196C339.984 96.2353 341.625 95.5924 345.408 92.5109L345.232 92.7178C345.195 92.7695 345.025 92.9765 344.496 93.5898C343.024 95.3485 341.49 97.1837 339.896 99.0951C338.301 101.007 336.802 102.879 335.399 104.711C334.01 106.544 333.029 107.901 332.455 108.783C330.693 111.133 329.047 113.483 327.516 115.833C325.978 118.183 322.975 123.06 322.099 124.959C321.805 125.55 321.474 126.171 321.113 126.836C320.753 127.501 320.421 128.048 320.127 128.484C319.402 130.146 319.174 131.985 319.472 133.775C319.49 134.418 319.72 135.037 320.127 135.534C321 136.273 321.915 137.081 322.872 137.957C323.804 138.824 324.787 139.634 325.816 140.381C326.552 140.965 327.244 141.519 327.899 142.029C328.562 142.551 329.258 143.03 329.982 143.463C330.698 143.745 331.394 144.076 332.065 144.453C332.38 144.631 332.732 144.733 333.093 144.753C333.454 144.772 333.815 144.707 334.148 144.564C334.4 144.547 334.647 144.48 334.873 144.366C335.1 144.251 335.301 144.093 335.465 143.899C339.704 139.79 341.169 138.955 345.489 134.987C346.225 134.292 346.998 133.575 347.756 132.873C347.631 133.413 347.513 133.967 347.432 134.551C347.297 135.424 347.224 136.305 347.211 137.189C347.34 137.44 347.45 137.699 347.543 137.965C347.671 138.249 347.859 138.501 348.095 138.704C348.973 139.443 349.885 140.251 350.832 141.128C351.779 142.005 352.692 142.813 353.57 143.551C354.306 144.135 354.961 144.689 355.55 145.199C356.162 145.737 356.822 146.217 357.523 146.633L359.495 147.623C359.833 147.803 360.205 147.906 360.587 147.925C360.968 147.945 361.349 147.879 361.703 147.734C361.956 147.717 362.203 147.65 362.429 147.536C362.655 147.421 362.856 147.263 363.02 147.069C367.436 142.96 371.374 138.416 375.473 134.233C382.2 127.368 392.909 117.732 392.909 117.732C393.116 117.668 393.305 117.554 393.458 117.399C393.611 117.244 393.723 117.054 393.785 116.845C394.079 116.557 394.079 116.106 393.785 115.53C393.536 114.983 393.253 114.452 392.938 113.941C392.644 113.653 392.35 113.357 392.063 113.062C391.807 112.798 391.511 112.576 391.187 112.404C391.13 112.302 391.053 112.213 390.961 112.141C390.869 112.07 390.764 112.017 390.652 111.986C390.54 111.955 390.423 111.947 390.307 111.961C390.192 111.976 390.081 112.013 389.98 112.071C389.535 112.24 389.126 112.491 388.773 112.81C387.301 113.985 376.496 121.53 374.016 123.437C373.869 123.585 373.427 123.954 372.699 124.538C371.97 125.122 371.168 125.75 370.285 126.407C369.402 127.065 368.607 127.693 367.878 128.277C367.494 128.647 367.048 128.948 366.561 129.164H366.34C366.193 129.164 366.229 128.917 366.45 128.425C366.58 128.069 366.764 127.735 366.995 127.435C367.326 126.628 367.73 125.854 368.202 125.122C368.676 124.391 369.081 123.616 369.409 122.809C370.287 121.641 371.092 120.469 371.823 119.291C372.554 118.114 373.29 116.939 374.031 115.766C375.348 114.148 376.585 112.537 377.762 110.919C378.94 109.3 380.095 107.763 381.266 106.293L382.149 104.977C382.436 104.534 382.73 104.091 383.025 103.655C385.65 100.423 388.282 97.3019 390.922 94.2918C393.562 91.2818 396.26 88.3825 399.018 85.5942C401.567 82.7391 404.27 80.0256 407.114 77.4655C407.51 77.0704 407.79 76.572 407.92 76.0263C408.05 75.4806 408.025 74.9092 407.85 74.3766C407.447 73.2741 406.832 72.2621 406.039 71.3986ZM426.875 52.1337C426.543 51.0406 425.934 50.0527 425.109 49.2665C424.209 48.367 423.258 47.5207 422.26 46.7318C421.42 46.0558 420.541 45.4314 419.625 44.8622C418.894 44.1331 417.945 44.1331 416.777 44.8622L416.122 45.5273L415.46 46.185C414.749 47.0456 413.979 47.8555 413.156 48.6088C412.3 49.4066 411.528 50.2906 410.852 51.2469V51.4686C411.549 53.607 412.711 55.5632 414.253 57.1956C415.916 58.889 418 60.1058 420.288 60.7205C421.458 59.6933 422.496 58.7031 423.467 57.7646L426.205 55.0156C426.559 54.6367 426.808 54.1708 426.925 53.6649C427.043 53.1589 427.025 52.6308 426.875 52.1337Z" fill="white"/>
<path d="M175.527 177.492C171.464 177.492 168.275 178.938 165.959 181.83C163.643 184.722 162.475 188.695 162.455 193.75C162.455 199.075 163.574 203.105 165.812 205.839C168.049 208.573 171.287 209.938 175.527 209.933C177.315 209.94 179.098 209.757 180.848 209.386C182.563 209.017 184.351 208.551 186.198 207.975V214.064C182.502 215.403 178.594 216.056 174.666 215.993C168.336 215.993 163.476 214.066 160.086 210.214C156.695 206.361 155 200.856 155 193.698C154.912 189.619 155.758 185.574 157.473 181.874C159.006 178.61 161.497 175.895 164.612 174.093C167.97 172.217 171.766 171.276 175.608 171.366C179.848 171.328 184.04 172.284 187.847 174.16L185.308 180.071C183.8 179.355 182.246 178.74 180.656 178.231C178.995 177.718 177.264 177.469 175.527 177.492Z" fill="white"/>
<path d="M252.629 215.409L248.309 203.356H231.779L227.547 215.416H220.091L236.283 171.817H243.967L260.158 215.416L252.629 215.409ZM246.447 197.23L242.392 185.407C242.097 184.618 241.687 183.372 241.162 181.667C240.64 179.96 240.287 178.712 240.088 177.921C239.479 180.631 238.697 183.299 237.747 185.909L233.847 197.223L246.447 197.23Z" fill="white"/>
<path d="M321.061 203.615C321.061 207.482 319.67 210.512 316.888 212.704C314.106 214.896 310.272 215.995 305.385 216C300.478 216 296.477 215.239 293.381 213.717V206.999C295.396 207.95 297.502 208.693 299.666 209.216C301.699 209.723 303.784 209.988 305.878 210.007C308.675 210.007 310.743 209.475 312.068 208.403C312.716 207.896 313.235 207.242 313.583 206.494C313.931 205.747 314.098 204.927 314.07 204.103C314.08 203.322 313.921 202.548 313.604 201.835C313.288 201.122 312.822 200.486 312.237 199.972C311.008 198.841 308.491 197.511 304.664 195.967C300.738 194.361 297.959 192.528 296.325 190.469C294.692 188.36 293.834 185.75 293.896 183.079C293.824 181.449 294.135 179.826 294.804 178.339C295.472 176.853 296.48 175.545 297.745 174.522C300.307 172.443 303.741 171.403 308.049 171.403C312.316 171.433 316.529 172.365 320.414 174.137L318.162 179.931C314.921 178.442 311.419 177.613 307.858 177.492C305.566 177.492 303.832 177.985 302.654 178.97C302.075 179.451 301.614 180.058 301.306 180.747C300.999 181.435 300.853 182.185 300.881 182.939C300.861 183.951 301.115 184.95 301.617 185.828C302.213 186.754 303.01 187.532 303.95 188.104C305.834 189.201 307.803 190.145 309.838 190.927C312.308 191.861 314.652 193.102 316.815 194.622C318.19 195.641 319.305 196.973 320.068 198.509C320.777 200.114 321.117 201.859 321.061 203.615Z" fill="white"/>
<path d="M393.814 215.409H386.719V195.841H366.781V215.409H359.716V171.994H366.781V189.73H386.719V171.994H393.814V215.409Z" fill="white"/>
</g>
<defs>
<clipPath id="clip0_95_1854">
<rect width="272" height="173" fill="white" transform="translate(155 43)"/>
</clipPath>
</defs>
</svg>
